# xmcd CD database file
#
# Track frame offsets:
#	150
#	17672
#	45124
#	54272
#	71188
#	85654
#	102338
#	119453
#	133148
#	153162
#	170823
#	193612
#	211377
#	233970
#	250480
#	274653
#	294614
#	309126
#
# Disc length: 4517 seconds
#
# Revision: 1
# Processed by: cddbd v1.5.2PL0 Copyright (c) Steve Scherf et al.
# Submitted via: CDex 1.51
#
DISCID=fc11a312
DTITLE=זאב טנא - אוסף
DYEAR=2003
DGENRE=Jazz
TTITLE0=לא לגעת
TTITLE1=שרה ודוד
TTITLE2=הנפש הטובה
TTITLE3=חתול שחור
TTITLE4=מחומצנת
TTITLE5=איה
TTITLE6=גרמנים
TTITLE7=תחת חול רך
TTITLE8=אחרי שכולם ימותו
TTITLE9=חבר
TTITLE10=הכל במקום
TTITLE11=חברים על ישו
TTITLE12=אנשים כמוני
TTITLE13=מחלות טובות
TTITLE14=יומולדת
TTITLE15=אחותי
TTITLE16=הורה
TTITLE17=איפה טעינו 2002
EXTD=YEAR: 2003
EXTT0=
EXTT1=
EXTT2=
EXTT3=
EXTT4=
EXTT5=
EXTT6=
EXTT7=
EXTT8=
EXTT9=
EXTT10=
EXTT11=
EXTT12=
EXTT13=
EXTT14=
EXTT15=
EXTT16=
EXTT17=
PLAYORDER=
